<?xml version="1.0" standalone="no"?>
<!DOCTYPE svg PUBLIC "-//W3C//DTD SVG 20010904//EN"
 "http://www.w3.org/TR/2001/REC-SVG-20010904/DTD/svg10.dtd">
<svg version="1.0" xmlns="http://www.w3.org/2000/svg"
 width="260.000000pt" height="260.000000pt" viewBox="0 0 260.000000 260.000000"
 preserveAspectRatio="xMidYMid meet">
<metadata>
Created by potrace 1.14, written by Peter Selinger 2001-2017
</metadata>
<g transform="translate(0.000000,260.000000) scale(0.100000,-0.100000)"
fill="#000000" stroke="none">
<path d="M2468 2582 c4 -11 2 -13 -9 -7 -12 8 -12 6 0 -8 11 -14 11 -17 0 -17
-9 -1 -5 -8 10 -20 13 -11 18 -20 12 -20 -6 0 -11 -5 -11 -11 0 -5 6 -7 13 -3
8 5 7 2 -2 -9 -10 -13 -17 -14 -26 -7 -9 8 -15 8 -20 0 -4 -6 -14 -9 -22 -6
-13 5 -12 2 2 -21 10 -16 14 -25 10 -21 -5 4 -14 3 -21 -3 -15 -12 -34 -4 -33
14 0 9 2 9 6 0 7 -18 20 -16 20 2 0 8 -5 11 -10 8 -6 -4 -8 0 -4 10 3 9 2 19
-4 22 -5 4 -9 3 -8 -2 4 -24 -2 -35 -17 -29 -15 6 -15 4 0 -19 9 -14 15 -25
14 -26 -2 0 -16 -2 -32 -4 -15 -2 -31 -7 -35 -11 -3 -4 3 -5 14 -2 15 4 21 0
21 -13 0 -14 -3 -16 -15 -6 -12 10 -13 9 -2 -11 7 -12 15 -21 19 -18 4 2 8 -4
8 -15 0 -16 -3 -15 -24 9 -13 15 -20 21 -16 13 5 -10 1 -12 -17 -7 -20 6 -21
5 -6 -4 15 -10 16 -13 2 -26 -8 -8 -19 -13 -24 -9 -10 5 -26 -12 -26 -29 0 -5
-8 -10 -18 -12 -18 -2 -18 -2 -1 17 10 11 14 20 9 19 -6 -2 -12 -1 -15 0 -19
7 -39 7 -34 -1 3 -5 9 -7 14 -4 5 3 11 1 15 -5 3 -6 -1 -13 -9 -16 -12 -5 -13
-9 -3 -19 6 -7 16 -12 22 -10 5 1 7 0 2 -2 -4 -3 -4 -10 0 -16 3 -7 -2 -4 -13
5 -14 12 -23 14 -34 7 -13 -9 -12 -10 1 -6 12 4 18 -2 22 -19 2 -13 0 -24 -5
-24 -5 0 -6 -6 -2 -12 6 -9 3 -9 -9 0 -18 15 -37 8 -37 -12 0 -7 -7 -13 -15
-13 -18 0 -20 14 -2 20 6 2 0 4 -14 3 -14 0 -26 -6 -26 -13 0 -7 4 -10 9 -7 4
3 8 1 8 -3 0 -5 -14 -14 -31 -20 -25 -10 -29 -15 -22 -30 13 -26 10 -58 -4
-55 -7 1 -13 -2 -13 -8 0 -5 5 -10 10 -10 6 0 10 -4 10 -9 0 -7 -14 -8 -38 -2
-1 1 2 10 8 21 6 11 15 18 21 15 5 -4 9 -1 9 4 0 6 -7 11 -15 11 -8 0 -15 -5
-15 -11 0 -5 -4 -7 -10 -4 -6 4 -7 -1 -3 -12 6 -16 5 -17 -13 -3 -17 14 -18
13 -7 -1 7 -9 10 -19 6 -22 -3 -4 -1 -7 5 -7 7 0 12 -6 12 -12 -1 -7 -8 -4
-18 8 -24 29 -50 27 -44 -3 2 -13 -1 -23 -7 -23 -6 0 -8 7 -4 17 6 15 5 16 -9
3 -13 -13 -14 -16 -2 -23 16 -9 19 -27 3 -27 -5 0 -8 4 -5 8 2 4 -5 8 -17 9
-12 0 -16 -1 -9 -4 6 -3 10 -8 7 -13 -3 -5 2 -16 11 -24 13 -14 14 -16 0 -16
-9 0 -13 -7 -11 -19 2 -13 -1 -18 -13 -16 -9 2 -19 4 -21 4 -2 1 3 9 12 19 12
13 13 21 6 32 -9 13 -10 12 -6 -2 3 -9 1 -18 -5 -20 -15 -5 -18 -50 -4 -68 7
-11 5 -10 -9 2 -11 9 -23 17 -27 17 -11 1 -11 11 -2 19 4 4 4 0 -1 -8 -5 -8
-4 -12 0 -7 14 12 15 40 2 29 -7 -5 -19 -8 -28 -7 -9 2 -16 -3 -16 -11 0 -7 5
-10 10 -7 6 4 8 -1 4 -11 -4 -10 -3 -15 3 -11 6 3 10 1 10 -4 0 -6 -9 -11 -19
-11 -11 0 -23 -5 -27 -12 -4 -7 -3 -8 4 -4 7 4 12 4 12 1 0 -9 -27 -35 -31
-30 -3 2 -13 -11 -23 -28 l-18 -32 33 33 c17 18 35 30 38 26 3 -4 1 -9 -6 -11
-7 -2 -9 -12 -6 -21 4 -13 3 -14 -5 -4 -7 11 -13 8 -29 -11 -19 -24 -20 -24
-31 -6 -10 16 -16 17 -33 8 -20 -10 -20 -11 -3 -31 14 -14 15 -19 4 -16 -21 5
-39 22 -32 32 3 5 -1 6 -8 1 -10 -6 -7 -14 13 -31 20 -17 23 -24 12 -28 -8 -3
-19 3 -24 12 -14 23 -14 6 0 -19 5 -11 15 -16 21 -13 7 5 8 2 4 -5 -6 -9 -12
-9 -25 3 -25 22 -34 20 -14 -4 15 -17 30 -60 16 -46 -4 3 -12 1 -20 -5 -7 -6
-13 -8 -13 -3 0 5 -5 2 -10 -6 -7 -11 -10 -11 -10 -2 0 7 -5 10 -10 7 -8 -5
-7 -12 2 -23 10 -14 10 -15 -2 -4 -18 15 -31 16 -27 0 1 -6 -8 -17 -21 -23
-12 -7 -26 -16 -30 -20 -4 -5 -1 -5 5 -1 9 5 11 2 6 -10 -4 -10 -2 -15 4 -11
5 3 10 0 10 -8 0 -8 -5 -13 -11 -12 -6 1 -10 -5 -8 -13 3 -11 1 -12 -8 -4 -13
13 -53 6 -44 -7 3 -5 0 -9 -7 -9 -8 0 -7 -5 2 -17 13 -16 12 -17 -3 -4 -14 11
-21 11 -33 1 -8 -7 -12 -17 -8 -24 3 -6 2 -7 -2 -3 -13 11 -15 38 -3 31 7 -5
8 -2 3 6 -5 8 -4 11 3 6 15 -9 23 7 11 24 -6 11 -9 12 -9 2 0 -7 -5 -10 -10
-7 -6 4 -10 3 -9 -2 1 -4 1 -10 -1 -13 -9 -25 -7 -50 5 -60 8 -7 15 -17 15
-23 0 -6 -6 -3 -13 8 -9 11 -19 15 -27 10 -10 -6 -12 -4 -6 11 5 14 4 16 -5 7
-13 -13 -3 -36 13 -27 7 4 8 2 4 -4 -4 -7 -2 -12 3 -12 6 0 11 -5 11 -11 0 -8
-5 -8 -15 1 -12 10 -18 10 -30 0 -8 -6 -18 -9 -22 -7 -5 3 -10 -3 -10 -14 -1
-10 3 -19 8 -19 6 0 7 5 3 12 -4 6 -3 8 3 5 6 -4 14 0 17 9 6 17 26 10 26 -9
0 -7 -4 -6 -10 3 -8 13 -10 13 -10 -2 0 -10 -10 -20 -25 -24 -14 -3 -22 -11
-18 -17 3 -5 1 -7 -4 -4 -13 8 -46 -27 -36 -38 5 -4 2 -5 -4 -1 -7 4 -13 2
-13 -3 0 -6 -5 -11 -11 -11 -8 0 -9 4 0 13 6 8 7 18 3 22 -4 5 -1 5 7 0 9 -5
12 -4 7 3 -10 17 -29 15 -23 -2 3 -7 1 -18 -5 -24 -8 -8 -7 -13 5 -18 9 -3 17
-10 17 -15 0 -4 -6 -6 -14 -3 -9 4 -13 -2 -11 -20 2 -15 -1 -24 -6 -20 -5 3
-6 11 -3 17 4 7 3 9 -1 4 -5 -4 -18 1 -29 10 -21 18 -21 18 -3 -3 9 -11 14
-24 10 -27 -3 -4 -1 -7 5 -7 7 0 12 -5 12 -11 0 -8 -4 -8 -12 -2 -7 6 -21 9
-30 8 -10 -2 -20 1 -23 5 -3 5 4 7 15 5 11 -2 20 1 20 6 0 6 -6 9 -12 6 -20
-7 -48 12 -42 28 4 8 1 15 -4 15 -15 0 -24 -17 -13 -24 5 -3 7 -15 4 -26 -9
-32 -19 -32 -17 1 1 16 -5 36 -13 45 -11 11 -12 18 -4 28 9 11 7 15 -6 21 -10
5 -21 8 -25 7 -4 -1 -5 5 -1 14 3 8 2 14 -3 13 -27 -5 -36 1 -25 15 9 11 9 16
0 22 -8 4 -9 3 -5 -4 4 -7 1 -12 -8 -12 -12 0 -14 -5 -6 -25 5 -14 7 -25 4
-25 -11 0 -21 46 -13 56 15 18 -19 46 -45 39 -15 -5 -17 -4 -7 3 11 8 11 10 0
14 -9 3 -8 6 5 11 10 4 15 3 11 -3 -3 -6 -1 -10 5 -10 7 0 10 6 7 13 -2 6 -10
11 -17 9 -7 -2 -10 3 -7 11 6 16 -10 37 -27 37 -6 0 -4 -5 4 -11 13 -9 13 -10
0 -6 -8 2 -14 12 -14 21 1 9 -2 16 -7 16 -5 0 -9 -6 -9 -14 0 -8 -4 -17 -9
-20 -4 -3 -7 6 -5 20 1 14 -1 23 -4 19 -4 -4 -7 -12 -7 -17 0 -6 -7 -13 -15
-15 -9 -3 -11 -1 -5 4 6 4 11 19 13 33 2 23 2 24 -11 6 -14 -19 -15 -19 -25 1
-9 15 -7 25 4 42 11 16 12 21 3 19 -7 -2 -13 2 -14 7 -1 18 -37 65 -49 64 -7
0 -6 -2 2 -6 6 -2 12 -10 12 -15 0 -6 -3 -8 -7 -5 -3 4 -12 2 -19 -4 -9 -7
-14 -5 -19 10 -3 12 -11 21 -16 21 -6 0 -8 -4 -4 -9 3 -5 0 -13 -7 -17 -7 -4
-10 -3 -5 1 4 5 -3 20 -15 33 -13 14 -17 22 -11 18 7 -4 13 -2 13 4 0 6 5 8
11 4 8 -5 8 -9 -1 -14 -9 -5 -9 -9 -1 -14 6 -4 11 -2 11 4 0 6 6 8 13 4 6 -4
3 2 -7 14 -11 12 -15 22 -10 22 5 0 1 5 -9 11 -10 6 -21 8 -24 5 -4 -3 -1 -6
5 -6 7 0 12 -4 12 -8 0 -5 -6 -9 -14 -9 -7 0 -13 7 -11 16 3 20 -14 43 -26 35
-5 -3 -9 0 -9 5 0 15 12 14 37 -4 14 -10 24 -12 28 -5 4 6 1 9 -7 8 -7 -2 -12
2 -11 8 1 5 -14 11 -33 12 -27 2 -34 -1 -35 -15 0 -14 -2 -13 -10 5 -5 13 -13
20 -19 17 -14 -9 -13 8 2 23 9 9 9 12 1 12 -7 0 -15 -4 -18 -10 -3 -5 -11 -10
-17 -10 -6 0 1 11 16 25 15 14 23 25 18 25 -5 0 -15 -7 -22 -15 -14 -17 -30
-20 -30 -4 0 5 4 8 8 5 4 -2 14 4 21 16 7 11 8 17 2 13 -6 -3 -11 -1 -11 4 0
6 6 11 13 11 14 1 -23 24 -38 25 -5 0 -10 5 -10 12 0 6 -4 15 -9 20 -5 5 -6 3
-2 -4 5 -9 0 -13 -13 -13 -12 0 -21 -4 -21 -10 0 -5 -5 -10 -11 -10 -5 0 -7 4
-4 10 3 5 -3 15 -13 21 -16 10 -18 18 -12 40 5 16 5 28 2 28 -21 -3 -23 3 -6
24 10 12 12 17 5 10 -11 -9 -17 -9 -27 2 -8 7 -14 18 -14 23 0 16 -23 20 -44
10 -12 -6 -22 -6 -28 0 -6 6 -16 8 -23 6 -6 -3 -18 3 -26 13 -12 16 -12 17 2
6 8 -7 25 -11 38 -8 12 2 19 0 16 -5 -3 -6 1 -7 9 -4 23 9 20 24 -3 19 -23 -4
-40 13 -36 37 2 11 -2 15 -12 11 -12 -5 -12 -7 -1 -14 7 -5 9 -9 4 -9 -5 0 -3
-8 5 -17 12 -17 12 -17 -5 -2 -9 9 -18 23 -20 33 -1 9 -10 22 -21 29 -14 11
-15 16 -5 22 9 6 11 4 5 -6 -5 -8 -5 -11 0 -7 4 4 13 1 19 -8 10 -13 12 -13
12 5 0 11 -4 18 -7 15 -4 -2 -10 0 -14 6 -3 5 -19 8 -36 6 -19 -2 -33 2 -39
13 -5 9 -10 11 -10 5 0 -6 -7 -11 -16 -11 -15 0 -15 1 -1 12 16 11 20 58 5 49
-4 -3 -5 -12 -2 -22 5 -14 4 -15 -5 -2 -7 11 -6 22 6 40 l16 25 -27 -25 c-24
-21 -26 -22 -20 -5 4 11 12 24 18 28 7 5 5 7 -4 5 -19 -4 -92 41 -85 52 3 5 0
12 -6 15 -5 4 -8 14 -5 22 3 8 2 11 -3 8 -6 -3 -9 -14 -8 -25 1 -10 5 -16 11
-13 5 3 6 1 3 -5 -4 -5 -17 -8 -30 -5 -18 4 -19 3 -7 -6 10 -7 11 -11 3 -11
-10 0 -13 -236 -13 -1145 l0 -1145 1300 0 1300 0 0 1301 0 1300 -69 -2 c-57
-2 -68 -5 -63 -17z m19 -32 c-1 -21 -10 -18 -13 5 -1 8 2 15 6 15 5 0 8 -9 7
-20z m-31 -104 c2 -13 1 -13 -3 -1 -2 8 -9 13 -14 10 -5 -4 -9 -1 -9 5 0 18
25 5 26 -14z m-290 -292 c1 -9 0 -13 -4 -10 -3 4 -7 14 -8 22 -1 9 0 13 4 10
3 -4 7 -14 8 -22z m-1945 -41 c13 -16 12 -17 -3 -4 -10 7 -18 15 -18 17 0 8 8
3 21 -13z m1852 -4 c-8 -8 -13 -7 -18 2 -5 8 -4 10 3 5 7 -4 12 -2 12 5 0 7 3
9 7 6 4 -4 2 -12 -4 -18z m30 1 c3 -11 1 -18 -4 -14 -5 3 -9 12 -9 20 0 20 7
17 13 -6z m-1697 -154 c1 -6 4 -18 6 -26 3 -8 3 -12 1 -7 -3 4 -12 7 -21 7
-10 0 -13 3 -7 8 15 10 12 38 -4 34 -7 -1 -10 2 -6 8 6 9 -8 15 -29 11 -5 -1
-3 5 4 14 13 15 16 14 34 -11 11 -15 21 -33 22 -38z m1567 49 c4 -8 3 -16 -1
-19 -4 -3 -9 4 -9 15 -2 23 3 25 10 4z m-1459 -152 c4 -5 13 -8 19 -8 5 0 11
-9 12 -21 1 -14 -5 -21 -19 -22 -15 -1 -17 1 -7 7 7 5 10 14 6 20 -5 9 -11 9
-23 -1 -15 -11 -15 -11 -4 4 10 13 10 17 0 21 -7 3 -8 6 -2 6 6 1 14 -2 18 -6z
m1192 -138 c2 -11 -2 -12 -17 -2 -13 8 -15 13 -6 19 13 8 20 3 23 -17z m64 11
c0 -2 -7 -7 -16 -10 -8 -3 -12 -2 -9 4 6 10 25 14 25 6z m-968 -164 c7 -7 8
-12 4 -12 -5 0 -3 -6 3 -14 9 -10 7 -16 -6 -27 -14 -10 -15 -10 -6 0 17 20
-15 55 -36 38 -14 -10 -14 -10 -4 4 7 9 10 18 7 22 -3 3 1 4 10 3 9 -1 22 -8
28 -14z m685 -127 c0 -8 -4 -15 -9 -15 -4 0 -8 7 -8 15 0 8 4 15 8 15 5 0 9
-7 9 -15z m-557 -35 c-6 -11 -13 -20 -16 -20 -2 0 0 9 6 20 6 11 13 20 16 20
2 0 0 -9 -6 -20z m45 -83 c-9 -5 -19 -6 -22 -3 -4 3 -1 6 5 6 7 0 12 4 12 10
0 5 -8 7 -17 4 -15 -5 -15 -4 -3 4 10 8 18 7 28 0 11 -10 10 -13 -3 -21z m162
-199 c-3 -8 -6 -5 -6 6 -1 11 2 17 5 13 3 -3 4 -12 1 -19z m53 8 c0 -3 -4 -8
-10 -11 -5 -3 -10 -1 -10 4 0 6 5 11 10 11 6 0 10 -2 10 -4z"/>
<path d="M2452 2511 c-11 -6 -10 -10 0 -19 11 -8 14 -7 14 9 0 10 0 19 -1 19
0 0 -6 -4 -13 -9z"/>
<path d="M2315 2420 c-3 -6 1 -7 9 -4 18 7 21 14 7 14 -6 0 -13 -4 -16 -10z"/>
<path d="M2213 2316 c-4 -5 -1 -6 5 -2 7 4 12 2 12 -5 0 -8 3 -9 13 0 8 6 17
8 20 4 4 -3 7 -2 7 4 0 13 -49 12 -57 -1z"/>
<path d="M70 2311 c0 -5 7 -14 15 -21 8 -7 15 -9 15 -4 0 4 6 0 13 -9 9 -13
16 -14 27 -6 13 9 12 10 -2 5 -17 -5 -26 8 -10 17 4 2 1 2 -5 1 -7 -2 -13 2
-13 9 0 8 -4 6 -10 -3 -8 -13 -10 -12 -10 3 0 9 -4 17 -10 17 -5 0 -10 -4 -10
-9z"/>
<path d="M206 2202 c-3 -5 1 -9 9 -9 8 0 12 4 9 9 -3 4 -7 8 -9 8 -2 0 -6 -4
-9 -8z"/>
<path d="M2130 2200 c-9 -6 -10 -10 -3 -10 6 0 15 5 18 10 8 12 4 12 -15 0z"/>
<path d="M2165 2200 c3 -5 8 -10 11 -10 2 0 4 5 4 10 0 6 -5 10 -11 10 -5 0
-7 -4 -4 -10z"/>
<path d="M180 2185 c0 -17 14 -30 30 -29 8 1 22 2 30 3 13 1 13 3 1 10 -8 5
-21 7 -29 4 -8 -3 -18 0 -23 8 -5 8 -9 10 -9 4z"/>
<path d="M269 2163 c-13 -16 -12 -17 4 -4 9 7 17 15 17 17 0 8 -8 3 -21 -13z"/>
<path d="M2020 2096 c0 -2 7 -7 16 -10 8 -3 12 -2 9 4 -6 10 -25 14 -25 6z"/>
<path d="M380 2046 c0 -2 8 -10 18 -17 15 -13 16 -12 3 4 -13 16 -21 21 -21
13z"/>
<path d="M445 1900 c-3 -4 3 -14 12 -21 14 -12 16 -12 8 0 -6 11 -4 13 8 8 10
-3 17 -3 17 2 0 12 -39 21 -45 11z"/>
<path d="M1765 1840 c-3 -6 1 -7 9 -4 18 7 21 14 7 14 -6 0 -13 -4 -16 -10z"/>
<path d="M629 1763 c-13 -16 -12 -17 4 -4 9 7 17 15 17 17 0 8 -8 3 -21 -13z"/>
<path d="M595 1740 c3 -5 8 -10 11 -10 2 0 4 5 4 10 0 6 -5 10 -11 10 -5 0 -7
-4 -4 -10z"/>
<path d="M1613 1634 c4 -7 1 -17 -7 -23 -11 -9 -15 -9 -19 1 -4 10 -6 10 -6
-1 -1 -11 -4 -11 -18 0 -16 12 -17 12 -5 -2 10 -14 9 -17 -7 -22 -11 -2 -25 0
-32 7 -10 8 -10 7 0 -6 11 -15 11 -18 0 -18 -12 0 -12 -2 -1 -9 10 -6 8 -10
-9 -14 -13 -4 -20 -9 -17 -12 3 -4 19 0 35 9 15 8 21 16 13 16 -20 1 40 34 62
35 29 0 41 20 22 36 -10 8 -15 9 -11 3z"/>
<path d="M815 1580 c3 -5 8 -10 11 -10 2 0 4 5 4 10 0 6 -5 10 -11 10 -5 0 -7
-4 -4 -10z"/>
<path d="M826 1502 c-2 -4 0 -14 6 -22 8 -12 9 -12 5 2 -3 9 -1 19 6 22 9 3 9
5 0 5 -6 1 -14 -3 -17 -7z"/>
<path d="M1483 1493 c-7 -3 -13 -8 -13 -13 0 -10 24 -7 28 4 5 11 -1 14 -15 9z"/>
<path d="M1435 1470 c-3 -6 1 -7 9 -4 18 7 21 14 7 14 -6 0 -13 -4 -16 -10z"/>
<path d="M1280 1310 c-11 -7 -11 -10 -2 -10 7 0 10 -5 6 -12 -5 -7 -12 -5 -22
8 -14 18 -14 18 -8 1 3 -10 6 -23 6 -29 0 -6 8 -4 18 5 10 10 19 24 19 32 0 8
-1 15 -1 15 -1 0 -8 -5 -16 -10z"/>
<path d="M1034 1298 c-4 -7 -3 -8 4 -4 6 3 16 -3 22 -14 6 -11 15 -20 21 -20
6 0 3 7 -5 16 -9 8 -16 20 -16 25 0 13 -17 11 -26 -3z"/>
<path d="M1093 1235 c-7 -8 -9 -16 -4 -19 5 -3 12 1 15 10 8 22 4 25 -11 9z"/>
<path d="M1195 1200 c3 -5 8 -10 11 -10 2 0 4 5 4 10 0 6 -5 10 -11 10 -5 0
-7 -4 -4 -10z"/>
</g>
</svg>
